<?xml version="1.0" standalone="no"?>
<!DOCTYPE svg PUBLIC "-//W3C//DTD SVG 20010904//EN"
 "http://www.w3.org/TR/2001/REC-SVG-20010904/DTD/svg10.dtd">
<svg version="1.0" xmlns="http://www.w3.org/2000/svg"
 width="403.000000pt" height="403.000000pt" viewBox="0 0 403.000000 403.000000"
 style="background-color:white"
 preserveAspectRatio="xMidYMid meet">
<metadata>
Created by potrace 1.16, written by Peter Selinger 2001-2019
</metadata>
<g transform="translate(0.000000,403.000000) scale(0.100000,-0.100000)"
fill="#000000" stroke="none">
<path d="M0 2015 l0 -2015 2015 0 2015 0 0 2015 0 2015 -2015 0 -2015 0 0
-2015z m1886 863 c77 -169 105 -217 224 -386 74 -106 140 -193 145 -194 6 -1
27 28 47 63 20 35 40 65 45 66 4 1 111 -171 237 -383 126 -211 234 -383 240
-381 6 2 49 66 96 142 47 76 90 140 96 142 5 2 72 -101 149 -229 l138 -233
161 -165 161 -165 -1599 -3 c-880 -1 -1602 0 -1604 3 -3 3 29 40 70 83 73 74
81 87 192 316 69 143 119 235 126 231 6 -3 22 -29 36 -56 17 -34 30 -49 42
-47 10 2 36 47 67 118 29 63 56 114 61 114 4 -1 20 -26 34 -55 14 -29 30 -54
36 -56 5 -2 87 72 181 164 l171 168 78 265 c68 233 89 290 172 468 52 111 98
202 102 202 4 0 47 -87 96 -192z"/>
</g>
</svg>
